<?xml version="1.0" encoding="UTF-8" standalone="no"?>
<svg width="7271px" height="6695px" viewBox="0 0 7271 6695" version="1.1" xmlns="http://www.w3.org/2000/svg" xmlns:xlink="http://www.w3.org/1999/xlink" xmlns:sketch="http://www.bohemiancoding.com/sketch/ns">
    <!-- Generator: Sketch 3.2.2 (9983) - http://www.bohemiancoding.com/sketch -->
    <title>ESVSeal</title>
    <desc>Created with Sketch.</desc>
    <defs></defs>
    <g id="Page-1" stroke="none" stroke-width="1" fill="none" fill-rule="evenodd" sketch:type="MSPage">
        <g id="ESVSeal" sketch:type="MSArtboardGroup" fill="#C1B391">
            <g id="ESV-Logo-Seal-2015" sketch:type="MSLayerGroup">
                <path d="M1654.32333,5321.39694 C1746.16947,6018.02459 2437.53915,6524 3194,6524 C4058,6524 4634,5987 4634,5153 C4634,4428 4215,3853 3443,2990 C2825,2300 2438,1788 2438,1206 C2438,584 2877,0 3625,0 C4158,0 4510,296 4659,774 L4012,1308 L3979,1230 C4049,1124 4082,998 4082,861 C4082,490 3836,193 3468,193 C3079,193 2812,476 2812,915 C2812,1419 3185,1760 3880,2506 C4602,3276 5117,4050 5117,4791 C5117,5867 4328,6695 3218,6695 C2344.80177,6695 1591.80488,6123.39507 1491.36239,5329.99423 C1489.90867,5329.99807 1488.45454,5330 1487,5330 C697,5330 0,4787 0,3963 C0,3370 502,2801 1246,2666 L1143,2622 C815,2482 641,2246 641,1944 C641,1496 1096,1169 1555,1169 C1944,1169 2240,1356 2290,1698 L1856,2060 L1823,1982 C1912,1892 1930,1806 1930,1720 C1930,1512 1782,1319 1539,1319 C1280,1319 1094,1533 1094,1807 C1094,2297 1638,2597 2217,2625 L2324,2911 L2322,2913 C2161,2852 1977,2816 1802,2816 C1123,2816 535,3267 535,3944 C535,4537.15782 931.085046,5044.95248 1480.33897,5118.78352 C1494.88656,4477.4401 1974.40583,3949.62447 2614.90296,3842.05075 C2511.7294,3624.37706 2292.91774,3476.28858 2024,3477 C1784,3476 1550,3593 1409,3842 L1340,3689 C1456,3459 1726,3323 2012,3324 C2361.89819,3323.26492 2649.65695,3533.80394 2777.16899,3824.14536 C2803.57164,3822.72152 2830.18832,3822 2857,3822 C3423,3822 3973,4148 4023,4673 L3396,5186 L3363,5108 C3433,4978 3465,4846 3465,4721 C3465,4382.10277 3204.91423,4094.10918 2838.66904,4036.48175 C2844.91392,4077.92146 2848.09514,4120.18921 2848,4163 C2848.92296,4786.91949 2313.17969,5253.24652 1654.32333,5321.39694 Z M1644.46451,5127.72668 C1660.51318,4523.53715 2089.26013,4043.341 2671.06765,4026.4579 C2676.49548,4062.05045 2679.20359,4098.64184 2679,4136 C2680.97026,4706.38914 2205.46569,5115.67906 1644.4645,5127.72678 Z M7270,1964 C7271,1490 6914,1141 6442,1141 C6014,1141 5649,1435 5649,1855 C5649,2189 5884,2492 6224,2527 L6301,2430 C5995,2394 5821,2128 5821,1874 C5822,1574 6055,1381 6357,1381 C6711,1381 6973,1673 6973,2044 C6973,2334 6822,2703 6649,3069 C6467,3459 6212,4020 6105,4326 C5761,3295 5650,2973 5489,2551 C5224,1858 5002,1350 4907,1151 L4270,1686 L4299,1760 C4406,1719 4496,1769 4582,1864 C4703,1994 4779,2197 4927,2569 C5134,3089 5281,3475 5404,3822 C5592,4351 5809,5008 5809,5225 C5809,5246 5807,5253 5803,5265 L5803,5267 L6004,5267 C6038,5041 6212,4482 6445,3927 C6562,3644 6698,3385 6826,3144 C7075,2668 7271,2311 7270,1964 Z" id="Shape" sketch:type="MSShapeGroup"></path>
            </g>
        </g>
    </g>
</svg>