<?xml version="1.0" encoding="utf-8"?>
<!-- Generator: Adobe Illustrator 16.0.0, SVG Export Plug-In . SVG Version: 6.00 Build 0)  -->
<!DOCTYPE svg PUBLIC "-//W3C//DTD SVG 1.1//EN" "http://www.w3.org/Graphics/SVG/1.1/DTD/svg11.dtd">
<svg version="1.1" id="Layer_1" xmlns="http://www.w3.org/2000/svg" xmlns:xlink="http://www.w3.org/1999/xlink" x="0px" y="0px"
	 width="50px" height="50px" viewBox="0 0 50 50" enable-background="new 0 0 50 50" xml:space="preserve">
<path fill="#FFFFFF" d="M48.385,43.012L38.369,33.001c2.359-3.432,3.655-7.482,3.655-11.737c0-5.546-2.16-10.761-6.085-14.685
	C32.018,2.658,26.801,0.5,21.255,0.5c-5.548,0-10.76,2.161-14.685,6.08c-8.093,8.098-8.093,21.27,0,29.371
	c3.925,3.922,9.137,6.081,14.685,6.081c4.255,0,8.307-1.296,11.739-3.656L43.015,48.39c0.738,0.739,1.715,1.11,2.686,1.11
	s1.947-0.371,2.689-1.116C49.871,46.902,49.871,44.497,48.385,43.012z M11.949,30.574c-5.133-5.132-5.133-13.488,0-18.621
	c2.485-2.484,5.789-3.855,9.306-3.855c3.516,0,6.825,1.371,9.311,3.855c2.488,2.487,3.859,5.795,3.859,9.311
	s-1.371,6.823-3.855,9.31C25.589,35.551,16.921,35.551,11.949,30.574z"/>
</svg>
